HIERARCHY
ROOT Hips
{
	OFFSET 0.000000 0.000000 0.000000 
	CHANNELS 6 Xposition Yposition Zposition Yrotation Zrotation Xrotation 
	JOINT Lumbar
	{
		OFFSET 0.000000 0.000000 0.000000 
		CHANNELS 3 Zrotation Xrotation Yrotation
		JOINT Neck
		{
			OFFSET 0.000000 0.445665 0.000000 
			CHANNELS 3 Zrotation Xrotation Yrotation
			End Site
			{
				OFFSET 0.000000 0.227535 0.000000 
			}
		}
		JOINT RightShoulder
		{
			OFFSET 0.019635 0.377685 0.194865 
			CHANNELS 3 Zrotation Xrotation Yrotation
			JOINT RightElbow
			{
				OFFSET 0.000000 -0.243375 0.000000 
				CHANNELS 2 Zrotation Yrotation
				JOINT RightWrist
				{
					OFFSET 0.000000 -0.264825 0.000000 
					CHANNELS 2 Zrotation Xrotation
					End Site
					{
						OFFSET 0.006600 -0.176220 0.000990 
					}
				}
			}
		}
		JOINT LeftShoulder
		{
			OFFSET 0.019635 0.377685 -0.194865 
			CHANNELS 3 Zrotation Xrotation Yrotation
			JOINT LeftElbow
			{
				OFFSET 0.000000 -0.243375 0.000000 
				CHANNELS 2 Zrotation Yrotation
				JOINT LeftWrist
				{
					OFFSET 0.000000 -0.264825 0.000000 
					CHANNELS 2 Zrotation Xrotation
					End Site
					{
						OFFSET 0.006600 -0.176220 -0.000990 
					}
				}
			}
		}
	}
	JOINT RightHip
	{
		OFFSET 0.052140 -0.069960 0.075570 
		CHANNELS 3 Zrotation Xrotation Yrotation
		JOINT RightKnee
		{
			OFFSET 0.000000 -0.402270 0.000000 
			CHANNELS 1 Zrotation
			JOINT RightAnkle
			{
				OFFSET 0.000000 -0.404085 0.000000 
				CHANNELS 3 Zrotation Xrotation Yrotation
				End Site
				{
					OFFSET 0.204105 -0.089430 0.008415 
				}
			}
		}
	}
	JOINT LeftHip
	{
		OFFSET 0.052140 -0.069960 -0.075570 
		CHANNELS 3 Zrotation Xrotation Yrotation
		JOINT LeftKnee
		{
			OFFSET 0.000000 -0.402270 0.000000 
			CHANNELS 1 Zrotation
			JOINT LeftAnkle
			{
				OFFSET 0.000000 -0.404085 0.000000 
				CHANNELS 3 Zrotation Xrotation Yrotation
				End Site
				{
					OFFSET 0.204105 -0.089430 -0.008415 
				}
			}
		}
	}
}
MOTION
Frames: 14
Frame Time: 0.02
-0.0005 0 4e-05 -536.9848 -36.82588 -2.92292 46.41687 2.84252 -3.77409 -16.49705 -2.04118 -0.3331 34.99715 -107.21283 64.1679 9.63195 84.70462 8.07735 -2.7616 7.97852 107.33897 -64.13576 8.31303 -87.59676 3.16813 4.50839 40.08015 -4.26484 -4.08358 -21.36565 -7.04003 -3.63858 -2.56188 45.66378 10.30486 2.24573 -26.82641 -7.22059 2.56953 1.93965
-0.00045 -0 5e-05 -537.05527 -37.06339 -2.94153 46.65295 2.85794 -3.72031 -16.48703 -2.03239 -0.33369 34.9876 -107.23715 64.1682 9.62403 84.70762 8.01419 -2.72953 8.03768 107.37782 -64.13591 8.3246 -87.59871 3.16252 4.4632 40.37381 -4.25762 -4.03747 -21.39594 -7.04286 -3.63834 -2.56214 45.93043 10.22646 1.90828 -26.84462 -7.22592 2.60009 1.96429
-0.0004 -1e-05 7e-05 -537.12554 -37.30005 -2.96014 46.88817 2.87336 -3.66669 -16.47705 -2.02364 -0.33427 34.97829 -107.26146 64.16846 9.61631 84.71059 7.95101 -2.6976 8.09679 107.41657 -64.13594 8.33614 -87.60066 3.15687 4.41812 40.66644 -4.25039 -3.99154 -21.42609 -7.04567 -3.63809 -2.56239 46.1962 10.14841 1.5721 -26.86282 -7.23124 2.63054 1.98884
-0.00035 -2e-05 8e-05 -537.19581 -37.5368 -2.9787 47.1235 2.88875 -3.61308 -16.46705 -2.01488 -0.33486 34.96876 -107.28572 64.16879 9.60842 84.71358 7.88804 -2.66563 8.15576 107.45531 -64.1362 8.34767 -87.6026 3.15127 4.37308 40.95917 -4.24318 -3.94558 -21.45627 -7.04848 -3.63784 -2.56264 46.46201 10.07028 1.23573 -26.88098 -7.23656 2.66101 2.01339
-0.0003 -2e-05 9e-05 -537.26623 -37.77445 -2.99722 47.35975 2.9041 -3.5593 -16.45703 -2.0061 -0.33545 34.95903 -107.30997 64.16906 9.60034 84.7166 7.82509 -2.63352 8.21482 107.49414 -64.13628 8.35923 -87.60455 3.14573 4.32791 41.253 -4.23604 -3.89944 -21.48663 -7.0513 -3.63761 -2.5629 46.72877 9.99174 0.89798 -26.89915 -7.2419 2.69158 2.03805
-0.00025 -3e-05 0.0001 -537.33618 -38.00905 -3.01601 47.59279 2.91965 -3.50603 -16.44714 -1.9974 -0.33603 34.95066 -107.33441 64.16923 9.59341 84.71944 7.76139 -2.60194 8.27408 107.53268 -64.13598 8.37074 -87.60648 3.13986 4.28299 41.54312 -4.22863 -3.85394 -21.51634 -7.0541 -3.63731 -2.56312 46.99244 9.91473 0.56513 -26.91741 -7.24716 2.72177 2.06237
-0.0002 -4e-05 0.00011 -537.40706 -38.24945 -3.03428 47.83199 2.93483 -3.45179 -16.43697 -1.98854 -0.33662 34.93928 -107.35842 64.1699 9.58396 84.72266 7.69948 -2.56933 8.33262 107.57182 -64.13741 8.38231 -87.60846 3.13465 4.2377 41.84027 -4.2217 -3.80719 -21.54727 -7.05694 -3.63715 -2.56342 47.26195 9.83479 0.22284 -26.93547 -7.25257 2.7527 2.08733
-0.00015 -5e-05 0.00012 -537.47701 -38.48464 -3.05295 48.06562 2.95028 -3.39846 -16.42708 -1.97983 -0.3372 34.93119 -107.38286 64.16957 9.57726 84.72553 7.63555 -2.53768 8.39232 107.61029 -64.13548 8.39386 -87.61038 3.12887 4.19259 42.13114 -4.21443 -3.76161 -21.57715 -7.05974 -3.63686 -2.56365 47.52624 9.75743 -0.11087 -26.95369 -7.25785 2.78295 2.1117
-0.0001 -5e-05 0.00014 -537.54613 -38.71298 -3.07244 48.29206 2.96634 -3.34617 -16.41745 -1.97128 -0.33777 34.92512 -107.40773 64.17015 9.57226 84.72798 7.57054 -2.50716 8.45152 107.64846 -64.13642 8.40525 -87.61228 3.1222 4.14833 42.41364 -4.20634 -3.71737 -21.60548 -7.0625 -3.63639 -2.5638 47.7836 9.68368 -0.4337 -26.97222 -7.26294 2.81238 2.13536
-6e-05 -6e-05 0.00014 -537.62094 -38.9793 -3.08822 48.5587 2.97976 -3.28767 -16.40607 -1.96173 -0.33842 34.90139 -107.42985 64.17192 9.55248 84.73284 7.51588 -2.46999 8.50781 107.68991 -64.1418 8.41716 -87.61443 3.12006 4.10109 42.74223 -4.20176 -3.66516 -21.64194 -7.0655 -3.63692 -2.5644 48.07919 9.59053 -0.81793 -26.98929 -7.26905 2.84657 2.16314
2e-05 -6e-05 0.00017 -537.68315 -39.16642 -3.11118 48.74129 2.99818 -3.24242 -16.39856 -1.95437 -0.33891 34.91878 -107.45794 64.16707 9.56704 84.73261 7.43678 -2.44695 8.57394 107.72341 -64.12445 8.42825 -87.61598 3.10875 4.05889 42.97487 -4.19052 -3.62996 -21.66176 -7.068 -3.63537 -2.56405 48.29517 9.53742 -1.07338 -27.00926 -7.27304 2.8707 2.18222
0.00023 -6e-05 0.00024 -537.71551 -39.12635 -3.15935 48.6846 3.03532 -3.23253 -16.40045 -1.95231 -0.33894 35.02258 -107.50068 64.17582 9.65313 84.71848 7.31244 -2.46147 8.63986 107.74284 -64.15021 8.43612 -87.6165 3.06887 4.04049 42.9308 -4.15465 -3.64025 -21.63115 -7.06915 -3.62771 -2.56098 48.28171 9.60272 -0.96558 -27.03892 -7.27083 2.86718 2.17708
0.00049 -5e-05 0.00034 -537.73438 -39.0085 -3.21376 48.54501 3.07658 -3.23609 -16.40654 -1.95255 -0.33883 35.17538 -107.54946 64.17091 9.77939 84.69927 7.16029 -2.48992 8.7227 107.75252 -64.13128 8.44438 -87.61637 3.02041 4.02506 42.79274 -4.11323 -3.6678 -21.58468 -7.0698 -3.61802 -2.55696 48.19026 9.7067 -0.73017 -27.07122 -7.26655 2.85357 2.16327
0.00073 -5e-05 0.00043 -537.75627 -38.93284 -3.2616 48.44909 3.11266 -3.23418 -16.41138 -1.95223 -0.3388 35.31947 -107.59693 64.1529 9.90022 84.68234 7.00561 -2.51343 8.81301 107.76199 -64.06681 8.45172 -87.61602 2.97806 4.00201 42.70658 -4.07854 -3.6883 -21.54867 -7.07067 -3.6095 -2.55344 48.14177 9.7873 -0.55977 -27.10113 -7.26349 2.84463 2.15366
